#!OML:ASF H:\ManfredObstacles\Project 1\Capture day 2\Session 1\male.ASF
:FULLY-SPECIFIED
:DEGREES
498
root 1.25458 15.9219 -12.1181 -175.573 6.61383 177.688
lowerback -7.69198 1.91961 -4.56432
upperback 0.946999 3.17856 -1.99066
thorax 5.17537 1.50159 0.869302
lowerneck -33.7038 0.607688 1.47901
upperneck 36.3079 -2.12792 1.45362
head 19.8408 -0.834041 -0.260605
rclavicle -3.77691e-015 3.26007e-014
rhumerus -34.2498 -18.2953 -78.8303
rradius 28.5635
rwrist 32.7769
rhand -0.269634 -5.75147
rfingers 7.12502
rthumb 25.3321 -34.0891
lclavicle -3.77691e-015 3.26007e-014
lhumerus -36.2535 24.6028 69.4378
lradius 18.761
lwrist -58.2658
lhand 3.49431 4.99601
lfingers 7.12502
lthumb 28.9328 32.7713
rfemur 1.62886 2.36286 20.5447
rtibia 36.2208
rfoot -4.40056 -8.45104
rtoes -26.1464
lfemur -25.9106 -4.88985 -22.0612
ltibia 24.5213
lfoot 6.66775 12.5782
ltoes 10.151
499
root 1.23223 15.934 -12.2032 -175.581 6.63654 177.604
lowerback -7.50873 1.91744 -4.57647
upperback 0.913787 3.16523 -2.00752
thorax 5.0377 1.49904 0.848718
lowerneck -33.8236 0.588214 1.3532
upperneck 36.3338 -2.11191 1.52383
head 19.8894 -0.831971 -0.199806
rclavicle 7.28049e-015 1.78906e-014
rhumerus -34.5527 -18.8119 -78.4032
rradius 28.1932
rwrist 33.3472
rhand -0.128461 -5.70527
rfingers 7.12502
rthumb 25.4673 -34.0236
lclavicle 7.28049e-015 1.78906e-014
lhumerus -35.7515 23.4463 70.5071
lradius 19.3716
lwrist -57.6074
lhand 3.4162 4.47096
lfingers 7.12502
lthumb 28.8582 32.259
rfemur 0.366521 1.84794 20.2099
rtibia 38.5917
rfoot -2.93037 -8.07544
rtoes -25.1175
lfemur -25.4817 -4.46514 -22.4077
ltibia 24.281
lfoot 6.29608 12.303
ltoes 10.1287
500
root 1.20627 15.9491 -12.3031 -175.604 6.68506 177.357
lowerback -7.5384 1.94553 -4.6494
upperback 0.937964 3.22388 -2.10755
thorax 5.07973 1.52871 0.793968
lowerneck -33.6882 0.297638 0.574542
upperneck 36.4687 -2.37242 2.02703
head 19.9612 -0.980183 0.110656
rclavicle -4.39811e-015 5.00937e-014
rhumerus -34.8849 -19.2423 -78.0057
rradius 27.9118
rwrist 33.8038
rhand 0.0842981 -5.53632
rfingers 7.12502
rthumb 25.6711 -33.8254
lclavicle -4.39811e-015 5.00937e-014
lhumerus -35.0799 21.5002 72.0201
lradius 20.1782
lwrist -55.455
lhand 3.95714 4.76761
lfingers 7.12502
lthumb 29.3748 32.4663
rfemur -0.726788 1.17555 19.6228
rtibia 40.8604
rfoot -1.38379 -7.54791
rtoes -24.5876
lfemur -24.9451 -4.23136 -22.9308
ltibia 24.038
lfoot 5.92546 12.2664
ltoes 10.081
501
root 1.18265 15.9631 -12.389 -175.593 6.76616 177.359
lowerback -7.3876 1.93181 -4.54716
upperback 0.943376 3.18598 -2.11708
thorax 5.00738 1.51433 0.716809
lowerneck -33.942 0.633152 1.47241
upperneck 36.2812 -1.98557 1.29943
head 19.8796 -0.794145 -0.295993
rclavicle -8.89561e-015 4.05521e-014
rhumerus -35.0709 -19.3848 -77.7737
rradius 27.7065
rwrist 34.3568
rhand 0.532218 -5.49365
rfingers 7.12502
rthumb 26.1 -33.7202
lclavicle -8.89561e-015 4.05521e-014
lhumerus -34.5129 20.0728 73.1996
lradius 20.9422
lwrist -53.7512
lhand 3.89707 4.69481
lfingers 7.12502
lthumb 29.3174 32.4035
rfemur -1.95873 0.773067 19.3662
rtibia 43.0993
rfoot -0.36426 -7.09706
rtoes -24.3554
lfemur -24.4824 -4.04855 -23.1145
ltibia 23.7601
lfoot 5.67232 12.2903
ltoes 10.1733
502
root 1.15706 15.9777 -12.4864 -175.644 6.83921 177.228
lowerback -7.30282 1.94967 -4.53509
upperback 0.865651 3.20228 -2.13989
thorax 4.8792 1.52758 0.68308
lowerneck -33.4856 0.532779 0.982356
upperneck 36.2545 -2.02626 1.63962
head 19.7606 -0.845279 -0.0573782
rclavicle 5.01931e-015 -2.50469e-014
rhumerus -35.601 -19.2115 -77.5123
rradius 27.7318
rwrist 34.5384
rhand 0.924351 -5.45689
rfingers 7.12502
rthumb 26.4754 -33.6274
lclavicle 5.01931e-015 -2.50469e-014
lhumerus -34.2115 18.1263 74.4838
lradius 21.7299
lwrist -51.8644
lhand 3.92375 4.73423
lfingers 7.12502
lthumb 29.3429 32.4385
rfemur -2.98772 0.273969 18.9401
rtibia 45.2459
rfoot 1.04183 -6.6445
rtoes -23.4478
lfemur -23.8785 -3.80295 -23.4892
ltibia 23.4499
lfoot 5.32557 12.26
ltoes 10.1147
